<?xml version="1.0" encoding="UTF-8" standalone="no"?>
<svg
   xmlns:dc="http://purl.org/dc/elements/1.1/"
   xmlns:cc="http://creativecommons.org/ns#"
   xmlns:rdf="http://www.w3.org/1999/02/22-rdf-syntax-ns#"
   xmlns:svg="http://www.w3.org/2000/svg"
   xmlns="http://www.w3.org/2000/svg"
   xmlns:sodipodi="http://sodipodi.sourceforge.net/DTD/sodipodi-0.dtd"
   xmlns:inkscape="http://www.inkscape.org/namespaces/inkscape"
   inkscape:version="1.0 (4035a4fb49, 2020-05-01)"
   inkscape:export-ydpi="96"
   inkscape:export-xdpi="96"
   inkscape:export-filename="C:\Users\jonth\Dropbox (Personal)\R\scenes\man\figures\logo.png"
   sodipodi:docname="logo.svg"
   xml:space="preserve"
   style="enable-background:new 0 0 738 852;"
   viewBox="0 0 738 852"
   y="0px"
   x="0px"
   id="Layer_1"
   version="1.1"><metadata
   id="metadata103"><rdf:RDF><cc:Work
       rdf:about=""><dc:format>image/svg+xml</dc:format><dc:type
         rdf:resource="http://purl.org/dc/dcmitype/StillImage" /><dc:title /></cc:Work></rdf:RDF></metadata><defs
   id="defs101">
		
		
		
		
		
		
		
		
		
		
		
	<pattern
   id="grid"
   width="80"
   height="80"
   patternUnits="userSpaceOnUse"><rect
     width="80"
     height="80"
     fill="url(#smallGrid)"
     id="rect5" /><path
     d="M 80 0 L 0 0 0 80"
     fill="none"
     stroke="white"
     stroke-width="1"
     id="path7" /></pattern><pattern
   id="smallGrid"
   width="8"
   height="8"
   patternUnits="userSpaceOnUse"><path
     d="M 8 0 L 0 0 0 8"
     fill="none"
     stroke="white"
     stroke-width="0.5"
     id="path2" /></pattern><pattern
   id="grid-3"
   width="200"
   height="200"
   patternUnits="userSpaceOnUse"><rect
     width="200"
     height="200"
     fill="url(#smallGrid)"
     id="rect5-9"
     style="fill:url(#smallGrid-1)" /><path
     d="M 80 0 L 0 0 0 80"
     fill="none"
     stroke="white"
     stroke-width="10"
     id="path7-5" /></pattern><pattern
   id="smallGrid-1"
   width="20"
   height="20"
   patternUnits="userSpaceOnUse"><path
     d="M 8 0 L 0 0 0 8"
     fill="none"
     stroke="white"
     stroke-width="5"
     id="path2-7" /></pattern><pattern
   id="grid-7"
   width="80"
   height="80"
   patternUnits="userSpaceOnUse"><rect
     width="80"
     height="80"
     fill="url(#smallGrid)"
     id="rect5-1"
     style="fill:url(#smallGrid-18)" /><path
     d="M 80 0 L 0 0 0 80"
     fill="none"
     stroke="white"
     stroke-width="4"
     id="path7-50" /></pattern><pattern
   id="smallGrid-18"
   width="8"
   height="8"
   patternUnits="userSpaceOnUse"><path
     d="M 8 0 L 0 0 0 8"
     fill="none"
     stroke="white"
     stroke-width="2"
     id="path2-2" /></pattern>
			
			
			
			
			
			
			
			
			
		<linearGradient
   id="linearGradient3252"><stop
     style="stop-color:#000000;stop-opacity:0.9910714;"
     offset="0"
     id="stop3254" /><stop
     id="stop3926"
     offset="0.5138889"
     style="stop-color:#000000;stop-opacity:0.6160714;" /><stop
     id="stop3260"
     offset="1"
     style="stop-color:#8d8d8d;stop-opacity:0;" /></linearGradient><linearGradient
   id="linearGradient3384"><stop
     style="stop-color:#f60000;stop-opacity:1;"
     offset="0"
     id="stop3386" /><stop
     style="stop-color:#b30000;stop-opacity:1;"
     offset="1"
     id="stop3388" /></linearGradient><linearGradient
   id="linearGradient3206"><stop
     id="stop3214"
     offset="0"
     style="stop-color:#7f0000;stop-opacity:1;" /><stop
     style="stop-color:#840000;stop-opacity:0.49803922;"
     offset="0.66666669"
     id="stop3828" /><stop
     style="stop-color:#000000;stop-opacity:0;"
     offset="1"
     id="stop3210" /></linearGradient><linearGradient
   id="linearGradient3216"><stop
     style="stop-color:#d43500;stop-opacity:1;"
     offset="0"
     id="stop3218" /><stop
     id="stop3242"
     offset="0.48051697"
     style="stop-color:#d42400;stop-opacity:1;" /><stop
     id="stop3224"
     offset="0.7361111"
     style="stop-color:#d40000;stop-opacity:1;" /><stop
     style="stop-color:#b20000;stop-opacity:1;"
     offset="1"
     id="stop3236" /></linearGradient><clipPath
   id="clipPath5788"
   clipPathUnits="userSpaceOnUse"><polygon
     id="polygon5790"
     points="4.3,637.6 4.3,215.5 371,8.4 729.7,215.5 729.7,637.6 371,846 "
     class="st0"
     style="display:inline;fill:#000000;fill-opacity:0" /></clipPath></defs><sodipodi:namedview
   inkscape:current-layer="g96"
   inkscape:window-maximized="1"
   inkscape:window-y="255"
   inkscape:window-x="-8"
   inkscape:cy="241.92335"
   inkscape:cx="964.0802"
   inkscape:zoom="0.50039367"
   showgrid="false"
   id="namedview99"
   inkscape:window-height="1009"
   inkscape:window-width="1920"
   inkscape:pageshadow="2"
   inkscape:pageopacity="0"
   guidetolerance="10"
   gridtolerance="10"
   objecttolerance="10"
   borderopacity="1"
   bordercolor="#666666"
   pagecolor="#ffffff"
   inkscape:document-rotation="0"
   showguides="false" />
<style
   id="style2"
   type="text/css">
	.st0{fill:#141227;}
	.st1{opacity:0.94;enable-background:new    ;}
	.st2{fill:#FFFFFF;}
	.st3{enable-background:new    ;}
	.st4{fill:#DB1F26;}
	.st5{fill:#00A5DC;}
	.st6{fill:#36A85D;}
	.st7{fill:#B57AB4;}
	.st8{fill:#F7A238;}
	.st9{fill:#FFF34D;}
	.st10{opacity:0.4;}
	.st11{fill:#A65628;}
	.st12{fill:#164F86;}
	.st13{fill:#404040;}
</style>
<g
   id="g96">
	
<polygon
   style="display:inline;fill:#ffffff;fill-opacity:1"
   class="st0"
   points="729.7,215.5 729.7,637.6 371,846 4.3,637.6 4.3,215.5 371,8.4 "
   id="polygon4" /><path
   style="display:inline;fill:#000000;fill-opacity:1"
   class="st13"
   d="M 707.1,197.2 429.3,36.8 369,2 308.7,36.8 30.9,197.2 1.6,214.1 v 424.3 l 29.3,16.9 281.3,162.4 56.9,32.8 56.9,-32.8 281.3,-162.4 29.3,-16.9 V 214.1 Z m 0,425.3 L 369,817.7 30.9,622.5 V 232.1 L 369,36.8 v 0 L 707.1,232 Z"
   id="path93" /><g
   id="g8"
   transform="matrix(1.5788073,0,0,1.3856991,73.351738,163.28473)"><g
     id="g6"><g
       id="g4"><path
         id="path2-3"
         d="M 48.528,123.507 327.18,44.715 314.547,0 14.727,84.776 25.68,123.507 h -0.258 v 38.266 8.196 181.75 h 311.57 v -181.75 -8.196 -38.266 z M 317.057,39.059 289.105,46.967 309.149,11.082 Z M 254.896,25.403 234.13,62.51 195.886,73.328 216.62,36.206 Z M 161.662,51.75 140.91,88.866 98.366,100.893 119.118,63.772 Z M 64.146,79.314 43.394,116.436 33.02,119.369 24.854,90.438 Z m 208.704,52.389 -30.066,30.063 h -39.781 l 30.084,-30.063 z m -96.879,0 -30.081,30.063 h -44.192 l 30.069,-30.063 z M 44.574,161.767 h -10.95 v -30.063 h 41.013 z m 284.216,0 h -28.896 l 28.896,-28.883 z" /></g></g></g><text
   id="text849"
   y="545.17053"
   x="123.28177"
   style="font-style:normal;font-variant:normal;font-weight:normal;font-stretch:normal;font-size:160px;line-height:1.25;font-family:sans-serif;-inkscape-font-specification:'sans-serif, Normal';font-variant-ligatures:normal;font-variant-caps:normal;font-variant-numeric:normal;font-variant-east-asian:normal;fill:#ffffff;fill-opacity:1;stroke:none;stroke-width:1.02;stroke-miterlimit:4;stroke-dasharray:none;stroke-opacity:1;"
   xml:space="preserve"><tspan
     style="font-style:normal;font-variant:normal;font-weight:bold;font-stretch:normal;font-size:160px;font-family:'Source Sans Pro';-inkscape-font-specification:'Source Sans Pro Bold';font-variant-ligatures:normal;font-variant-caps:normal;font-variant-numeric:normal;font-variant-east-asian:normal;fill:#ffffff;fill-opacity:1;stroke:none;stroke-width:1.02;stroke-miterlimit:4;stroke-dasharray:none;stroke-opacity:1;"
     y="545.17053"
     x="123.28177"
     id="tspan847"
     sodipodi:role="line">scenes</tspan></text></g>
</svg>
